<svg
  width="204"
  height="132"
  viewBox="0 0 204 132"
  fill="none"
  xmlns="http://www.w3.org/2000/svg"
>
  <g clip-path="url(#clip0)">
    <path
      opacity="0.1"
      d="M101.506 131.501C157.389 131.501 202.691 126.536 202.691 120.41C202.691 114.285 157.389 109.319 101.506 109.319C45.6224 109.319 0.320068 114.285 0.320068 120.41C0.320068 126.536 45.6224 131.501 101.506 131.501Z"
      fill="#E09BED"
    />
    <path
      d="M173.455 125.847C173.455 125.847 178.733 119.791 178.306 113.783C178.109 111.264 178.824 108.755 180.342 106.633C181.072 105.631 181.902 104.691 182.822 103.826"
      stroke="#535461"
      stroke-width="2"
      stroke-miterlimit="10"
    />
    <path
      d="M182.578 100.038C182.206 100.879 182.816 103.926 182.816 103.926C182.816 103.926 185.583 102.094 185.955 101.253C186.134 100.85 186.127 100.399 185.936 99.9992C185.746 99.6 185.388 99.2852 184.94 99.1242C184.492 98.9631 183.992 98.9689 183.549 99.1403C183.106 99.3117 182.757 99.6347 182.578 100.038V100.038Z"
      fill="#E09BED"
    />
    <path
      d="M177.726 103.692C177.92 104.581 180.268 106.839 180.268 106.839C180.268 106.839 181.488 103.945 181.293 103.057C181.247 102.846 181.155 102.645 181.022 102.466C180.89 102.287 180.72 102.133 180.522 102.013C180.323 101.893 180.101 101.809 179.867 101.767C179.632 101.725 179.391 101.725 179.157 101.766C178.923 101.808 178.7 101.891 178.501 102.01C178.303 102.13 178.132 102.283 177.999 102.462C177.866 102.641 177.774 102.841 177.727 103.053C177.68 103.264 177.68 103.481 177.726 103.692V103.692Z"
      fill="#E09BED"
    />
    <path
      d="M174.326 111.697C174.991 112.375 178.282 113.256 178.282 113.256C178.282 113.256 177.714 110.203 177.049 109.524C176.891 109.363 176.699 109.231 176.485 109.137C176.27 109.042 176.037 108.987 175.799 108.974C175.56 108.961 175.322 108.99 175.096 109.06C174.87 109.13 174.662 109.239 174.483 109.382C174.304 109.525 174.158 109.698 174.053 109.891C173.949 110.085 173.887 110.295 173.873 110.51C173.858 110.725 173.89 110.94 173.968 111.144C174.046 111.348 174.167 111.535 174.326 111.697V111.697Z"
      fill="#E09BED"
    />
    <path
      d="M173.265 118.275C173.794 119.045 176.872 120.415 176.872 120.415C176.872 120.415 176.886 117.319 176.357 116.549C176.231 116.366 176.067 116.207 175.873 116.081C175.679 115.955 175.46 115.865 175.228 115.816C174.995 115.766 174.754 115.759 174.518 115.793C174.283 115.828 174.057 115.904 173.854 116.018C173.651 116.131 173.474 116.279 173.335 116.454C173.195 116.629 173.096 116.827 173.041 117.036C172.986 117.246 172.978 117.463 173.016 117.676C173.055 117.889 173.14 118.092 173.265 118.275V118.275Z"
      fill="#E09BED"
    />
    <path
      d="M183.741 108.278C182.813 108.623 179.428 108.109 179.428 108.109C179.428 108.109 181.427 105.592 182.355 105.246C182.8 105.081 183.301 105.081 183.746 105.248C184.191 105.415 184.545 105.735 184.729 106.137C184.913 106.539 184.912 106.99 184.727 107.392C184.542 107.793 184.187 108.112 183.741 108.278V108.278Z"
      fill="#E09BED"
    />
    <path
      d="M182.393 115.957C181.393 116.036 178.334 114.632 178.334 114.632C178.334 114.632 181.076 112.77 182.076 112.691C182.314 112.672 182.554 112.695 182.782 112.76C183.009 112.824 183.221 112.929 183.404 113.067C183.587 113.206 183.738 113.375 183.849 113.566C183.959 113.757 184.027 113.966 184.047 114.181C184.068 114.395 184.042 114.612 183.97 114.817C183.898 115.022 183.782 115.213 183.629 115.378C183.475 115.543 183.287 115.679 183.075 115.778C182.863 115.878 182.631 115.939 182.393 115.957V115.957Z"
      fill="#E09BED"
    />
    <path
      d="M179.947 123.259C178.976 123.489 175.698 122.572 175.698 122.572C175.698 122.572 178.051 120.318 179.022 120.088C179.488 119.978 179.984 120.038 180.401 120.258C180.817 120.477 181.12 120.836 181.243 121.257C181.365 121.677 181.298 122.124 181.055 122.5C180.812 122.875 180.413 123.149 179.947 123.259V123.259Z"
      fill="#E09BED"
    />
    <path
      opacity="0.25"
      d="M182.578 100.038C182.206 100.879 182.816 103.926 182.816 103.926C182.816 103.926 185.583 102.094 185.955 101.253C186.134 100.85 186.127 100.399 185.936 99.9992C185.746 99.6 185.388 99.2852 184.94 99.1242C184.492 98.9631 183.992 98.9689 183.549 99.1403C183.106 99.3117 182.757 99.6347 182.578 100.038V100.038Z"
      fill="black"
    />
    <path
      opacity="0.25"
      d="M177.726 103.692C177.92 104.581 180.268 106.839 180.268 106.839C180.268 106.839 181.488 103.945 181.293 103.057C181.247 102.846 181.155 102.645 181.022 102.466C180.89 102.287 180.72 102.133 180.522 102.013C180.323 101.893 180.101 101.809 179.867 101.767C179.632 101.725 179.391 101.725 179.157 101.766C178.923 101.808 178.7 101.891 178.501 102.01C178.303 102.13 178.132 102.283 177.999 102.462C177.866 102.641 177.774 102.841 177.727 103.053C177.68 103.264 177.68 103.481 177.726 103.692V103.692Z"
      fill="black"
    />
    <path
      opacity="0.25"
      d="M174.326 111.697C174.991 112.375 178.282 113.256 178.282 113.256C178.282 113.256 177.714 110.203 177.049 109.524C176.891 109.363 176.699 109.231 176.485 109.137C176.27 109.042 176.037 108.987 175.799 108.974C175.56 108.961 175.322 108.99 175.096 109.06C174.87 109.13 174.662 109.239 174.483 109.382C174.304 109.525 174.158 109.698 174.053 109.891C173.949 110.085 173.887 110.295 173.873 110.51C173.858 110.725 173.89 110.94 173.968 111.144C174.046 111.348 174.167 111.535 174.326 111.697V111.697Z"
      fill="black"
    />
    <path
      opacity="0.25"
      d="M173.265 118.275C173.794 119.045 176.872 120.415 176.872 120.415C176.872 120.415 176.886 117.319 176.357 116.549C176.231 116.366 176.067 116.207 175.873 116.081C175.679 115.955 175.46 115.865 175.228 115.816C174.995 115.766 174.754 115.759 174.518 115.793C174.283 115.828 174.057 115.904 173.854 116.018C173.651 116.131 173.474 116.279 173.335 116.454C173.195 116.629 173.096 116.827 173.041 117.036C172.986 117.246 172.978 117.463 173.016 117.676C173.055 117.889 173.14 118.092 173.265 118.275V118.275Z"
      fill="black"
    />
    <path
      opacity="0.25"
      d="M183.741 108.278C182.813 108.623 179.428 108.109 179.428 108.109C179.428 108.109 181.427 105.592 182.355 105.246C182.8 105.081 183.301 105.081 183.746 105.248C184.191 105.415 184.545 105.735 184.729 106.137C184.913 106.539 184.912 106.99 184.727 107.392C184.542 107.793 184.187 108.112 183.741 108.278V108.278Z"
      fill="black"
    />
    <path
      opacity="0.25"
      d="M182.393 115.957C181.393 116.036 178.334 114.632 178.334 114.632C178.334 114.632 181.076 112.77 182.076 112.691C182.314 112.672 182.554 112.695 182.782 112.76C183.009 112.824 183.221 112.929 183.404 113.067C183.587 113.206 183.738 113.375 183.849 113.566C183.959 113.757 184.027 113.966 184.047 114.181C184.068 114.395 184.042 114.612 183.97 114.817C183.898 115.022 183.782 115.213 183.629 115.378C183.475 115.543 183.287 115.679 183.075 115.778C182.863 115.878 182.631 115.939 182.393 115.957V115.957Z"
      fill="black"
    />
    <path
      opacity="0.25"
      d="M179.947 123.259C178.976 123.489 175.698 122.572 175.698 122.572C175.698 122.572 178.051 120.318 179.022 120.088C179.488 119.978 179.984 120.038 180.401 120.258C180.817 120.477 181.12 120.836 181.243 121.257C181.365 121.677 181.298 122.124 181.055 122.5C180.812 122.875 180.413 123.149 179.947 123.259V123.259Z"
      fill="black"
    />
    <path
      d="M173.5 125.594C173.5 125.594 181.046 121.987 183.356 116.338C184.307 113.963 186.088 111.931 188.43 110.546C189.547 109.897 190.728 109.341 191.958 108.886"
      stroke="#535461"
      stroke-width="2"
      stroke-miterlimit="10"
    />
    <path
      d="M193.438 105.334C192.72 105.967 191.908 108.974 191.908 108.974C191.908 108.974 195.261 108.311 195.979 107.679C196.324 107.375 196.521 106.96 196.526 106.525C196.532 106.09 196.346 105.671 196.009 105.36C195.672 105.049 195.211 104.872 194.729 104.867C194.247 104.862 193.782 105.03 193.438 105.334V105.334Z"
      fill="#E09BED"
    />
    <path
      d="M187.36 106.901C187.138 107.784 188.27 110.707 188.27 110.707C188.27 110.707 190.685 108.507 190.906 107.624C190.959 107.414 190.965 107.197 190.925 106.985C190.884 106.772 190.798 106.569 190.67 106.387C190.543 106.205 190.377 106.048 190.182 105.924C189.987 105.799 189.766 105.711 189.534 105.663C189.301 105.616 189.06 105.61 188.824 105.647C188.589 105.683 188.364 105.761 188.162 105.876C187.96 105.991 187.786 106.141 187.648 106.317C187.51 106.493 187.412 106.691 187.36 106.901V106.901Z"
      fill="#E09BED"
    />
    <path
      d="M180.654 112.976C180.958 113.84 183.57 115.847 183.57 115.847C183.57 115.847 184.424 112.849 184.12 111.986C184.048 111.781 183.932 111.59 183.778 111.425C183.625 111.261 183.436 111.125 183.224 111.026C183.013 110.927 182.781 110.866 182.543 110.848C182.305 110.829 182.066 110.853 181.838 110.918C181.611 110.983 181.399 111.088 181.217 111.227C181.034 111.365 180.883 111.535 180.774 111.726C180.664 111.917 180.596 112.126 180.576 112.341C180.556 112.555 180.582 112.771 180.654 112.976V112.976Z"
      fill="#E09BED"
    />
    <path
      d="M176.728 118.603C176.866 119.5 179.065 121.877 179.065 121.877C179.065 121.877 180.468 119.052 180.33 118.155C180.298 117.942 180.219 117.736 180.098 117.551C179.978 117.365 179.818 117.202 179.627 117.072C179.437 116.942 179.22 116.847 178.989 116.793C178.758 116.739 178.518 116.726 178.281 116.755C178.044 116.785 177.817 116.856 177.611 116.964C177.405 117.073 177.224 117.218 177.08 117.389C176.936 117.561 176.831 117.756 176.77 117.965C176.71 118.173 176.696 118.39 176.728 118.603V118.603Z"
      fill="#E09BED"
    />
    <path
      d="M190.799 113.291C189.795 113.268 186.931 111.561 186.931 111.561C186.931 111.561 189.889 109.99 190.893 110.014C191.375 110.025 191.832 110.208 192.164 110.524C192.496 110.839 192.676 111.26 192.663 111.695C192.651 112.13 192.447 112.542 192.098 112.841C191.748 113.141 191.281 113.303 190.799 113.291H190.799Z"
      fill="#E09BED"
    />
    <path
      d="M186.115 119.819C185.165 119.526 182.999 117.125 182.999 117.125C182.999 117.125 186.343 116.424 187.293 116.717C187.749 116.858 188.124 117.157 188.337 117.547C188.549 117.937 188.58 118.388 188.424 118.799C188.268 119.211 187.937 119.549 187.504 119.741C187.071 119.932 186.571 119.96 186.115 119.819V119.819Z"
      fill="#E09BED"
    />
    <path
      d="M180.598 125.601C179.606 125.457 177.021 123.42 177.021 123.42C177.021 123.42 180.186 122.22 181.177 122.364C181.653 122.433 182.079 122.67 182.361 123.023C182.643 123.375 182.759 123.815 182.682 124.244C182.605 124.673 182.342 125.057 181.951 125.312C181.561 125.566 181.074 125.67 180.598 125.601V125.601Z"
      fill="#E09BED"
    />
    <path
      opacity="0.1"
      d="M115.65 15.9751C105.651 15.6621 96.1283 12.7513 87.0349 9.5667C77.9415 6.3821 68.9343 2.85383 59.1752 1.16637C52.8983 0.0810176 45.7201 -0.072544 40.6625 2.96227C35.7956 5.88268 34.223 10.9239 33.3775 15.6015C32.7414 19.1208 32.3674 22.8247 34.1104 26.1194C35.3205 28.4068 37.4691 30.3295 38.9549 32.5204C44.1251 40.144 40.4708 49.5447 34.8679 56.9885C32.2397 60.4803 29.1912 63.8114 27.1631 67.5284C25.135 71.2454 24.1968 75.5046 25.9712 79.2963C27.7299 83.0546 31.9212 85.8775 36.4613 87.863C45.6825 91.8956 56.5486 93.0498 67.1446 93.7034C90.5999 95.1504 114.181 94.5239 137.698 93.8965C146.401 93.6643 155.143 93.429 163.705 92.2154C168.46 91.5415 173.368 90.4718 176.82 87.8895C181.202 84.6114 182.288 79.0605 179.352 74.95C174.427 68.0553 160.809 66.3427 157.367 58.9434C155.472 54.8705 157.418 50.3338 160.171 46.5565C166.079 38.4533 175.98 31.3444 176.502 22.0823C176.86 15.721 172.1 9.35029 164.74 6.34049C157.026 3.18563 146.328 3.58248 140.637 8.80485C134.777 14.1824 124.478 16.2515 115.65 15.9751Z"
      fill="#E09BED"
    />
    <path
      d="M98.5304 115.436C102.285 115.436 105.329 112.522 105.329 108.928C105.329 105.335 102.285 102.421 98.5304 102.421C94.7759 102.421 91.7322 105.335 91.7322 108.928C91.7322 112.522 94.7759 115.436 98.5304 115.436Z"
      fill="#FBD56F"
    />
    <path
      opacity="0.1"
      d="M98.5304 115.436C102.285 115.436 105.329 112.522 105.329 108.928C105.329 105.335 102.285 102.421 98.5304 102.421C94.7759 102.421 91.7322 105.335 91.7322 108.928C91.7322 112.522 94.7759 115.436 98.5304 115.436Z"
      fill="black"
    />
    <path
      d="M99.7035 115.436C103.458 115.436 106.502 112.587 106.502 109.073C106.502 105.559 103.458 102.711 99.7035 102.711C95.949 102.711 92.9053 105.559 92.9053 109.073C92.9053 112.587 95.949 115.436 99.7035 115.436Z"
      fill="#FBD56F"
    />
    <path
      d="M102.457 114.839L101.75 114.484C101.75 114.484 101.419 115.729 101.527 116.616C101.538 116.706 101.579 116.791 101.645 116.859C101.711 116.927 101.798 116.975 101.896 116.997C103.522 117.362 111.276 118.914 116.607 116.728C116.685 116.696 116.751 116.646 116.801 116.584C116.851 116.522 116.882 116.449 116.891 116.373C116.956 115.828 116.725 114.703 116.632 114.484C116.433 114.012 102.457 114.839 102.457 114.839Z"
      fill="#FBD56F"
    />
    <path
      opacity="0.1"
      d="M102.457 114.839L101.75 114.484C101.75 114.484 101.419 115.729 101.527 116.616C101.538 116.706 101.579 116.791 101.645 116.859C101.711 116.927 101.798 116.975 101.896 116.997C103.522 117.362 111.276 118.914 116.607 116.728C116.685 116.696 116.751 116.646 116.801 116.584C116.851 116.522 116.882 116.449 116.891 116.373C116.956 115.828 116.725 114.703 116.632 114.484C116.433 114.012 102.457 114.839 102.457 114.839Z"
      fill="black"
    />
    <path
      d="M109.191 115.997C113.301 115.997 116.632 115.319 116.632 114.484C116.632 113.649 113.301 112.971 109.191 112.971C105.081 112.971 101.75 113.649 101.75 114.484C101.75 115.319 105.081 115.997 109.191 115.997Z"
      fill="#FBD56F"
    />
    <path
      d="M105.3 112.607L104.593 112.252C104.593 112.252 104.262 113.497 104.37 114.384C104.381 114.474 104.422 114.559 104.488 114.627C104.554 114.695 104.641 114.744 104.739 114.766C106.365 115.13 114.119 116.682 119.45 114.496C119.528 114.464 119.594 114.415 119.644 114.353C119.694 114.29 119.725 114.218 119.734 114.141C119.799 113.596 119.568 112.471 119.475 112.252C119.276 111.781 105.3 112.607 105.3 112.607Z"
      fill="#FBD56F"
    />
    <path
      opacity="0.1"
      d="M105.3 112.607L104.593 112.252C104.593 112.252 104.262 113.497 104.37 114.384C104.381 114.474 104.422 114.559 104.488 114.627C104.554 114.695 104.641 114.744 104.739 114.766C106.365 115.13 114.119 116.682 119.45 114.496C119.528 114.464 119.594 114.415 119.644 114.353C119.694 114.29 119.725 114.218 119.734 114.141C119.799 113.596 119.568 112.471 119.475 112.252C119.276 111.781 105.3 112.607 105.3 112.607Z"
      fill="black"
    />
    <path
      d="M112.034 113.765C116.143 113.765 119.475 113.088 119.475 112.252C119.475 111.417 116.143 110.74 112.034 110.74C107.924 110.74 104.593 111.417 104.593 112.252C104.593 113.088 107.924 113.765 112.034 113.765Z"
      fill="#FBD56F"
    />
    <path
      d="M107.813 109.674L107.106 109.319C107.106 109.319 106.775 110.564 106.884 111.451C106.894 111.541 106.935 111.626 107.001 111.694C107.067 111.762 107.154 111.811 107.252 111.833C108.879 112.197 116.632 113.749 121.964 111.563C122.041 111.531 122.108 111.482 122.157 111.42C122.207 111.357 122.238 111.285 122.247 111.208C122.312 110.663 122.081 109.539 121.988 109.319C121.789 108.848 107.813 109.674 107.813 109.674Z"
      fill="#FBD56F"
    />
    <path
      opacity="0.1"
      d="M107.813 109.674L107.106 109.319C107.106 109.319 106.775 110.564 106.884 111.451C106.894 111.541 106.935 111.626 107.001 111.694C107.067 111.762 107.154 111.811 107.252 111.833C108.879 112.197 116.632 113.749 121.964 111.563C122.041 111.531 122.108 111.482 122.157 111.42C122.207 111.357 122.238 111.285 122.247 111.208C122.312 110.663 122.081 109.539 121.988 109.319C121.789 108.848 107.813 109.674 107.813 109.674Z"
      fill="black"
    />
    <path
      d="M114.547 110.832C118.657 110.832 121.988 110.155 121.988 109.319C121.988 108.484 118.657 107.807 114.547 107.807C110.438 107.807 107.106 108.484 107.106 109.319C107.106 110.155 110.438 110.832 114.547 110.832Z"
      fill="#FBD56F"
    />
    <path
      d="M105.03 106.621L104.323 106.266C104.323 106.266 103.992 107.511 104.1 108.398C104.111 108.488 104.152 108.573 104.218 108.641C104.284 108.709 104.371 108.757 104.469 108.779C106.095 109.144 113.849 110.696 119.18 108.51C119.258 108.478 119.324 108.428 119.374 108.366C119.424 108.304 119.455 108.231 119.464 108.155C119.529 107.61 119.298 106.485 119.205 106.266C119.006 105.794 105.03 106.621 105.03 106.621Z"
      fill="#FBD56F"
    />
    <path
      opacity="0.1"
      d="M105.03 106.621L104.323 106.266C104.323 106.266 103.992 107.511 104.1 108.398C104.111 108.488 104.152 108.573 104.218 108.641C104.284 108.709 104.371 108.757 104.469 108.779C106.095 109.144 113.849 110.696 119.18 108.51C119.258 108.478 119.324 108.428 119.374 108.366C119.424 108.304 119.455 108.231 119.464 108.155C119.529 107.61 119.298 106.485 119.205 106.266C119.006 105.794 105.03 106.621 105.03 106.621Z"
      fill="black"
    />
    <path
      d="M111.764 107.779C115.874 107.779 119.205 107.101 119.205 106.266C119.205 105.431 115.874 104.753 111.764 104.753C107.654 104.753 104.323 105.431 104.323 106.266C104.323 107.101 107.654 107.779 111.764 107.779Z"
      fill="#FBD56F"
    />
    <path
      d="M111.292 104.171L110.584 103.816C110.584 103.816 110.254 105.06 110.362 105.947C110.372 106.037 110.413 106.122 110.479 106.19C110.545 106.259 110.633 106.307 110.73 106.329C112.357 106.693 120.11 108.245 125.442 106.059C125.519 106.028 125.586 105.978 125.636 105.916C125.685 105.854 125.716 105.781 125.725 105.705C125.791 105.16 125.559 104.035 125.467 103.816C125.268 103.344 111.292 104.171 111.292 104.171Z"
      fill="#FBD56F"
    />
    <path
      opacity="0.1"
      d="M111.292 104.171L110.584 103.816C110.584 103.816 110.254 105.06 110.362 105.947C110.372 106.037 110.413 106.122 110.479 106.19C110.545 106.259 110.633 106.307 110.73 106.329C112.357 106.693 120.11 108.245 125.442 106.059C125.519 106.028 125.586 105.978 125.636 105.916C125.685 105.854 125.716 105.781 125.725 105.705C125.791 105.16 125.559 104.035 125.467 103.816C125.268 103.344 111.292 104.171 111.292 104.171Z"
      fill="black"
    />
    <path
      d="M118.025 105.328C122.135 105.328 125.466 104.651 125.466 103.816C125.466 102.98 122.135 102.303 118.025 102.303C113.916 102.303 110.584 102.98 110.584 103.816C110.584 104.651 113.916 105.328 118.025 105.328Z"
      fill="#FBD56F"
    />
    <path
      d="M107.061 102.524L106.354 102.169C106.354 102.169 106.023 103.413 106.131 104.3C106.142 104.39 106.183 104.475 106.249 104.543C106.314 104.612 106.402 104.66 106.499 104.682C108.126 105.046 115.879 106.599 121.211 104.412C121.288 104.381 121.355 104.331 121.405 104.269C121.455 104.207 121.485 104.134 121.494 104.058C121.56 103.513 121.328 102.388 121.236 102.169C121.037 101.697 107.061 102.524 107.061 102.524Z"
      fill="#FBD56F"
    />
    <path
      opacity="0.1"
      d="M107.061 102.524L106.354 102.169C106.354 102.169 106.023 103.413 106.131 104.3C106.142 104.39 106.183 104.475 106.249 104.543C106.314 104.612 106.402 104.66 106.499 104.682C108.126 105.046 115.879 106.599 121.211 104.412C121.288 104.381 121.355 104.331 121.405 104.269C121.455 104.207 121.485 104.134 121.494 104.058C121.56 103.513 121.328 102.388 121.236 102.169C121.037 101.697 107.061 102.524 107.061 102.524Z"
      fill="black"
    />
    <path
      d="M113.795 103.681C117.904 103.681 121.236 103.004 121.236 102.169C121.236 101.333 117.904 100.656 113.795 100.656C109.685 100.656 106.354 101.333 106.354 102.169C106.354 103.004 109.685 103.681 113.795 103.681Z"
      fill="#FBD56F"
    />
    <path
      d="M109.885 99.3443L109.178 98.9893C109.178 98.9893 108.847 100.234 108.956 101.121C108.966 101.211 109.007 101.296 109.073 101.364C109.139 101.432 109.226 101.481 109.324 101.503C110.951 101.867 118.704 103.419 124.036 101.233C124.113 101.201 124.18 101.152 124.229 101.09C124.279 101.027 124.31 100.955 124.319 100.878C124.384 100.333 124.153 99.2084 124.06 98.9893C123.861 98.5176 109.885 99.3443 109.885 99.3443Z"
      fill="#FBD56F"
    />
    <path
      opacity="0.1"
      d="M109.885 99.3443L109.178 98.9893C109.178 98.9893 108.847 100.234 108.956 101.121C108.966 101.211 109.007 101.296 109.073 101.364C109.139 101.432 109.226 101.481 109.324 101.503C110.951 101.867 118.704 103.419 124.036 101.233C124.113 101.201 124.18 101.152 124.229 101.09C124.279 101.027 124.31 100.955 124.319 100.878C124.384 100.333 124.153 99.2084 124.06 98.9893C123.861 98.5176 109.885 99.3443 109.885 99.3443Z"
      fill="black"
    />
    <path
      d="M116.619 100.502C120.729 100.502 124.06 99.8247 124.06 98.9894C124.06 98.154 120.729 97.4768 116.619 97.4768C112.51 97.4768 109.178 98.154 109.178 98.9894C109.178 99.8247 112.51 100.502 116.619 100.502Z"
      fill="#FBD56F"
    />
    <path
      d="M111.279 95.5705L110.572 95.2155C110.572 95.2155 110.241 96.4602 110.349 97.3471C110.36 97.4371 110.401 97.522 110.466 97.5902C110.532 97.6585 110.62 97.7069 110.717 97.7289C112.344 98.0932 120.097 99.6453 125.429 97.4591C125.506 97.4273 125.573 97.3779 125.623 97.3157C125.672 97.2536 125.703 97.1808 125.712 97.1046C125.778 96.5595 125.546 95.4346 125.454 95.2155C125.255 94.7438 111.279 95.5705 111.279 95.5705Z"
      fill="#FBD56F"
    />
    <path
      opacity="0.1"
      d="M111.279 95.5705L110.572 95.2155C110.572 95.2155 110.241 96.4602 110.349 97.3471C110.36 97.4371 110.401 97.522 110.466 97.5902C110.532 97.6585 110.62 97.7069 110.717 97.7289C112.344 98.0932 120.097 99.6453 125.429 97.4591C125.506 97.4273 125.573 97.3779 125.623 97.3157C125.672 97.2536 125.703 97.1808 125.712 97.1046C125.778 96.5595 125.546 95.4346 125.454 95.2155C125.255 94.7438 111.279 95.5705 111.279 95.5705Z"
      fill="black"
    />
    <path
      d="M118.013 96.7279C122.122 96.7279 125.454 96.0507 125.454 95.2153C125.454 94.38 122.122 93.7028 118.013 93.7028C113.903 93.7028 110.572 94.38 110.572 95.2153C110.572 96.0507 113.903 96.7279 118.013 96.7279Z"
      fill="#FBD56F"
    />
    <path
      d="M123.84 115.714L123.133 115.359C123.133 115.359 122.802 116.604 122.91 117.491C122.921 117.581 122.962 117.666 123.028 117.734C123.094 117.802 123.181 117.851 123.278 117.873C124.905 118.237 132.658 119.789 137.99 117.603C138.067 117.571 138.134 117.522 138.184 117.46C138.234 117.397 138.265 117.325 138.274 117.248C138.339 116.703 138.107 115.578 138.015 115.359C137.816 114.888 123.84 115.714 123.84 115.714Z"
      fill="#FBD56F"
    />
    <path
      opacity="0.1"
      d="M123.84 115.714L123.133 115.359C123.133 115.359 122.802 116.604 122.91 117.491C122.921 117.581 122.962 117.666 123.028 117.734C123.094 117.802 123.181 117.851 123.278 117.873C124.905 118.237 132.658 119.789 137.99 117.603C138.067 117.571 138.134 117.522 138.184 117.46C138.234 117.397 138.265 117.325 138.274 117.248C138.339 116.703 138.107 115.578 138.015 115.359C137.816 114.888 123.84 115.714 123.84 115.714Z"
      fill="black"
    />
    <path
      d="M130.574 116.872C134.684 116.872 138.015 116.195 138.015 115.359C138.015 114.524 134.684 113.847 130.574 113.847C126.464 113.847 123.133 114.524 123.133 115.359C123.133 116.195 126.464 116.872 130.574 116.872Z"
      fill="#FBD56F"
    />
    <path
      d="M126.353 112.781L125.646 112.426C125.646 112.426 125.315 113.671 125.423 114.558C125.434 114.648 125.475 114.733 125.541 114.801C125.607 114.869 125.694 114.918 125.792 114.94C127.418 115.304 135.172 116.856 140.503 114.67C140.581 114.638 140.647 114.589 140.697 114.527C140.747 114.464 140.778 114.392 140.787 114.315C140.852 113.77 140.621 112.645 140.528 112.426C140.329 111.955 126.353 112.781 126.353 112.781Z"
      fill="#FBD56F"
    />
    <path
      opacity="0.1"
      d="M126.353 112.781L125.646 112.426C125.646 112.426 125.315 113.671 125.423 114.558C125.434 114.648 125.475 114.733 125.541 114.801C125.607 114.869 125.694 114.918 125.792 114.94C127.418 115.304 135.172 116.856 140.503 114.67C140.581 114.638 140.647 114.589 140.697 114.527C140.747 114.464 140.778 114.392 140.787 114.315C140.852 113.77 140.621 112.645 140.528 112.426C140.329 111.955 126.353 112.781 126.353 112.781Z"
      fill="black"
    />
    <path
      d="M133.087 113.939C137.197 113.939 140.528 113.262 140.528 112.426C140.528 111.591 137.197 110.914 133.087 110.914C128.977 110.914 125.646 111.591 125.646 112.426C125.646 113.262 128.977 113.939 133.087 113.939Z"
      fill="#FBD56F"
    />
    <path
      d="M123.57 109.728L122.863 109.373C122.863 109.373 122.532 110.618 122.64 111.505C122.651 111.595 122.692 111.679 122.758 111.748C122.824 111.816 122.911 111.864 123.008 111.886C124.635 112.251 132.388 113.803 137.72 111.617C137.797 111.585 137.864 111.535 137.914 111.473C137.964 111.411 137.994 111.338 138.003 111.262C138.069 110.717 137.837 109.592 137.745 109.373C137.546 108.901 123.57 109.728 123.57 109.728Z"
      fill="#FBD56F"
    />
    <path
      opacity="0.1"
      d="M123.57 109.728L122.863 109.373C122.863 109.373 122.532 110.618 122.64 111.505C122.651 111.595 122.692 111.679 122.758 111.748C122.824 111.816 122.911 111.864 123.008 111.886C124.635 112.251 132.388 113.803 137.72 111.617C137.797 111.585 137.864 111.535 137.914 111.473C137.964 111.411 137.994 111.338 138.003 111.262C138.069 110.717 137.837 109.592 137.745 109.373C137.546 108.901 123.57 109.728 123.57 109.728Z"
      fill="black"
    />
    <path
      d="M130.304 110.885C134.414 110.885 137.745 110.208 137.745 109.373C137.745 108.538 134.414 107.86 130.304 107.86C126.194 107.86 122.863 108.538 122.863 109.373C122.863 110.208 126.194 110.885 130.304 110.885Z"
      fill="#FBD56F"
    />
    <path
      d="M129.831 107.278L129.124 106.923C129.124 106.923 128.793 108.167 128.902 109.054C128.912 109.144 128.953 109.229 129.019 109.297C129.085 109.366 129.172 109.414 129.27 109.436C130.897 109.8 138.65 111.352 143.982 109.166C144.059 109.134 144.126 109.085 144.175 109.023C144.225 108.961 144.256 108.888 144.265 108.812C144.33 108.267 144.099 107.142 144.006 106.923C143.808 106.451 129.831 107.278 129.831 107.278Z"
      fill="#FBD56F"
    />
    <path
      opacity="0.1"
      d="M129.831 107.278L129.124 106.923C129.124 106.923 128.793 108.167 128.902 109.054C128.912 109.144 128.953 109.229 129.019 109.297C129.085 109.366 129.172 109.414 129.27 109.436C130.897 109.8 138.65 111.352 143.982 109.166C144.059 109.134 144.126 109.085 144.175 109.023C144.225 108.961 144.256 108.888 144.265 108.812C144.33 108.267 144.099 107.142 144.006 106.923C143.808 106.451 129.831 107.278 129.831 107.278Z"
      fill="black"
    />
    <path
      d="M136.565 108.435C140.675 108.435 144.006 107.758 144.006 106.923C144.006 106.087 140.675 105.41 136.565 105.41C132.456 105.41 129.124 106.087 129.124 106.923C129.124 107.758 132.456 108.435 136.565 108.435Z"
      fill="#FBD56F"
    />
    <path
      d="M125.601 105.631L124.894 105.276C124.894 105.276 124.563 106.52 124.671 107.407C124.682 107.497 124.723 107.582 124.788 107.65C124.854 107.719 124.942 107.767 125.039 107.789C126.666 108.153 134.419 109.705 139.751 107.519C139.828 107.488 139.895 107.438 139.945 107.376C139.994 107.314 140.025 107.241 140.034 107.165C140.1 106.62 139.868 105.495 139.776 105.276C139.577 104.804 125.601 105.631 125.601 105.631Z"
      fill="#FBD56F"
    />
    <path
      opacity="0.1"
      d="M125.601 105.631L124.894 105.276C124.894 105.276 124.563 106.52 124.671 107.407C124.682 107.497 124.723 107.582 124.788 107.65C124.854 107.719 124.942 107.767 125.039 107.789C126.666 108.153 134.419 109.705 139.751 107.519C139.828 107.488 139.895 107.438 139.945 107.376C139.994 107.314 140.025 107.241 140.034 107.165C140.1 106.62 139.868 105.495 139.776 105.276C139.577 104.804 125.601 105.631 125.601 105.631Z"
      fill="black"
    />
    <path
      d="M132.335 106.788C136.444 106.788 139.776 106.111 139.776 105.276C139.776 104.44 136.444 103.763 132.335 103.763C128.225 103.763 124.894 104.44 124.894 105.276C124.894 106.111 128.225 106.788 132.335 106.788Z"
      fill="#FBD56F"
    />
    <path
      d="M128.425 102.451L127.718 102.096C127.718 102.096 127.387 103.341 127.495 104.228C127.506 104.318 127.547 104.403 127.613 104.471C127.679 104.539 127.766 104.588 127.864 104.61C129.49 104.974 137.244 106.526 142.575 104.34C142.653 104.308 142.719 104.259 142.769 104.196C142.819 104.134 142.85 104.062 142.859 103.985C142.924 103.44 142.693 102.315 142.6 102.096C142.401 101.625 128.425 102.451 128.425 102.451Z"
      fill="#FBD56F"
    />
    <path
      opacity="0.1"
      d="M128.425 102.451L127.718 102.096C127.718 102.096 127.387 103.341 127.495 104.228C127.506 104.318 127.547 104.403 127.613 104.471C127.679 104.539 127.766 104.588 127.864 104.61C129.49 104.974 137.244 106.526 142.575 104.34C142.653 104.308 142.719 104.259 142.769 104.196C142.819 104.134 142.85 104.062 142.859 103.985C142.924 103.44 142.693 102.315 142.6 102.096C142.401 101.625 128.425 102.451 128.425 102.451Z"
      fill="black"
    />
    <path
      d="M135.159 103.609C139.269 103.609 142.6 102.932 142.6 102.096C142.6 101.261 139.269 100.584 135.159 100.584C131.05 100.584 127.718 101.261 127.718 102.096C127.718 102.932 131.05 103.609 135.159 103.609Z"
      fill="#FBD56F"
    />
    <path
      d="M129.818 98.6774L129.111 98.3223C129.111 98.3223 128.781 99.567 128.889 100.454C128.899 100.544 128.94 100.629 129.006 100.697C129.072 100.765 129.16 100.814 129.257 100.836C130.884 101.2 138.637 102.752 143.969 100.566C144.046 100.534 144.113 100.485 144.162 100.423C144.212 100.36 144.243 100.288 144.252 100.211C144.317 99.6663 144.086 98.5414 143.994 98.3223C143.795 97.8506 129.818 98.6774 129.818 98.6774Z"
      fill="#FBD56F"
    />
    <path
      opacity="0.1"
      d="M129.818 98.6774L129.111 98.3223C129.111 98.3223 128.781 99.567 128.889 100.454C128.899 100.544 128.94 100.629 129.006 100.697C129.072 100.765 129.16 100.814 129.257 100.836C130.884 101.2 138.637 102.752 143.969 100.566C144.046 100.534 144.113 100.485 144.162 100.423C144.212 100.36 144.243 100.288 144.252 100.211C144.317 99.6663 144.086 98.5414 143.994 98.3223C143.795 97.8506 129.818 98.6774 129.818 98.6774Z"
      fill="black"
    />
    <path
      d="M136.552 99.835C140.662 99.835 143.994 99.1578 143.994 98.3224C143.994 97.487 140.662 96.8098 136.552 96.8098C132.443 96.8098 129.111 97.487 129.111 98.3224C129.111 99.1578 132.443 99.835 136.552 99.835Z"
      fill="#FBD56F"
    />
    <path
      d="M174.669 124.617C173.633 124.584 173.596 124.222 172.264 123.596C171.513 123.243 170.371 122.218 169.52 121.393C169.452 121.327 169.386 121.263 169.322 121.2C169.547 121.195 169.675 121.193 169.675 121.193C169.675 121.193 169.342 118.56 169.638 117.934C169.934 117.309 169.712 113.589 169.712 113.589C169.712 113.589 169.897 110.758 169.564 110.1C169.231 109.442 169.675 105.228 169.675 105.228C169.675 105.228 169.971 102.727 170.045 97.6244C170.119 92.5222 166.79 92.3576 166.79 92.3576C166.79 92.3576 166.346 92.3266 165.672 92.2687C165.607 92.2632 165.539 92.2572 165.47 92.2512C165.906 91.4272 166.161 90.8105 166.161 90.8105C166.161 90.8105 165.606 86.0374 165.458 85.2145C165.31 84.3916 164.422 81.0011 164.422 81.0011C164.422 81.0011 163.793 79.5527 163.423 78.5322C163.053 77.5118 161.944 76.3268 161.944 76.3268C161.944 76.3268 159.946 72.7717 159.391 72.245C159.134 72.0007 158.773 71.6926 158.46 71.4326C158.403 71.3857 158.349 71.3412 158.297 71.298C158.381 70.9271 158.425 70.5497 158.429 70.1712C158.429 70.1712 156.358 68.3278 156.21 67.867C156.062 67.4061 154.101 65.6944 154.101 65.6944C154.101 65.6944 152.992 63.851 151.734 63.8181C151.14 63.7877 150.543 63.804 149.952 63.8668C150.211 63.0046 150.516 62.1014 150.79 61.3263C150.821 61.2399 150.851 61.1557 150.881 61.0727C151.886 60.4598 152.675 59.5995 153.153 58.5941C153.179 58.5406 153.203 58.4866 153.227 58.4326C153.24 58.4329 153.253 58.4348 153.267 58.4347C153.319 58.4341 153.371 58.4299 153.422 58.422C153.836 58.3578 154.187 57.9362 153.996 57.6034C154.008 57.6222 154.026 57.6377 154.047 57.6482C154.068 57.6587 154.092 57.6639 154.117 57.6632C154.255 57.6591 154.423 57.479 154.455 57.3206C154.461 57.2932 154.464 57.2654 154.469 57.2378C154.475 57.2034 154.481 57.1691 154.485 57.1346C154.49 57.1021 154.492 57.0696 154.495 57.037C154.499 57.0034 154.501 56.9699 154.503 56.9362C154.505 56.9047 154.506 56.8733 154.507 56.8417C154.507 56.8054 154.507 56.7692 154.507 56.7329C154.506 56.7039 154.506 56.6749 154.504 56.6459C154.502 56.6018 154.498 56.5578 154.493 56.5138C154.491 56.4957 154.491 56.4776 154.489 56.4595L154.488 56.4622C154.467 56.2823 154.427 56.1046 154.369 55.9313C154.165 55.3194 153.736 54.7127 153.901 54.0915C153.903 54.0848 153.906 54.0787 153.908 54.0721L153.908 54.0733C154.046 53.5912 154.509 53.241 154.792 52.8103C154.819 52.7692 154.842 52.7269 154.866 52.6844C154.87 52.6766 154.875 52.6691 154.879 52.6613C154.896 52.6293 154.911 52.5964 154.926 52.5637C154.935 52.5426 154.946 52.5219 154.955 52.5006C154.967 52.472 154.977 52.4427 154.987 52.4136C154.996 52.3871 155.006 52.3607 155.015 52.3339C155.023 52.3081 155.029 52.2819 155.036 52.2559C155.044 52.2245 155.052 52.1931 155.059 52.1614C155.064 52.1386 155.068 52.1157 155.072 52.0929C155.078 52.0569 155.083 52.0209 155.088 51.9847C155.09 51.965 155.092 51.9454 155.093 51.9257C155.097 51.8853 155.099 51.8449 155.101 51.8043C155.101 51.788 155.101 51.7718 155.101 51.7555C155.101 51.7111 155.1 51.6668 155.097 51.6224C155.097 51.6091 155.096 51.5958 155.095 51.5825C155.091 51.5352 155.086 51.4881 155.079 51.441C155.078 51.4342 155.078 51.4274 155.076 51.4206L155.076 51.4224C155.013 51.0088 154.83 50.6174 154.546 50.2879C154.222 49.9402 153.813 49.6653 153.351 49.4851C152.889 49.3048 152.386 49.2241 151.884 49.2493C151.606 49.2776 151.325 49.2823 151.046 49.2632C150.582 49.2019 150.189 48.9358 149.819 48.6788C148.786 47.9613 147.753 47.2439 146.721 46.5264C146.375 46.2556 145.978 46.0429 145.549 45.8985C145.111 45.7777 144.586 45.8194 144.262 46.1079C143.682 46.6242 144.051 47.5126 143.818 48.2127C143.616 48.819 142.967 49.2299 142.295 49.4347C141.622 49.6395 140.903 49.6845 140.212 49.8327C140.007 49.8628 139.814 49.9426 139.655 50.0636C139.476 50.2595 139.389 50.5106 139.413 50.7635C139.408 51.3835 139.574 51.9948 139.894 52.5435C140.024 52.7671 140.183 52.993 140.322 53.222C140.333 53.2409 140.344 53.2599 140.355 53.2789C140.371 53.3051 140.386 53.3314 140.401 53.3578C140.425 53.4006 140.448 53.4435 140.47 53.4865C140.479 53.5051 140.488 53.5238 140.497 53.5424C140.511 53.5729 140.525 53.6035 140.538 53.6341C140.546 53.6535 140.555 53.673 140.562 53.6926C140.576 53.7286 140.589 53.7647 140.6 53.8009C140.674 54.0138 140.681 54.2411 140.62 54.4573C140.513 54.8111 140.207 55.0837 139.937 55.3602C139.717 55.5761 139.56 55.8384 139.481 56.1232L139.479 56.1295C139.464 56.1957 139.461 56.2637 139.471 56.3307C139.472 56.3391 139.473 56.3475 139.475 56.3555C139.479 56.3705 139.483 56.3852 139.489 56.3996C139.493 56.4101 139.498 56.4203 139.503 56.4303C139.509 56.442 139.515 56.4534 139.523 56.4644C139.536 56.4827 139.552 56.4996 139.57 56.5144C139.578 56.5206 139.587 56.5264 139.596 56.5318C139.61 56.5418 139.626 56.5506 139.643 56.5581C139.653 56.5626 139.664 56.5669 139.675 56.5706C139.699 56.5789 139.725 56.5851 139.75 56.5893C139.758 56.5905 139.764 56.5926 139.771 56.5935C139.811 56.5981 139.851 56.5997 139.89 56.5981C139.902 56.5977 139.914 56.5965 139.926 56.5957C139.964 56.5931 140.002 56.5888 140.04 56.5827C140.054 56.5806 140.067 56.5786 140.082 56.5759C140.136 56.5658 140.193 56.5533 140.256 56.5356C140.464 56.479 140.666 56.407 140.861 56.3202C140.86 56.3402 140.859 56.36 140.859 56.3801C140.859 56.4147 140.859 56.4509 140.863 56.4855C140.873 57.131 141.008 57.7699 141.262 58.3735C141.659 59.3142 142.324 60.1435 143.191 60.7771C143.181 60.834 143.169 60.8911 143.156 60.9484C142.978 61.7378 142.605 62.5298 142.375 62.4685C142.15 62.4233 141.92 62.4005 141.689 62.4007C141.619 62.3988 141.551 62.398 141.487 62.3976L141.487 62.3974C141.278 62.3756 141.067 62.3756 140.858 62.3974C140.765 62.4032 140.671 62.3915 140.583 62.3632C139.985 62.1933 139.35 62.1612 138.735 62.2697C137.456 62.5061 135.51 62.9386 134.976 63.456C134.163 64.2461 132.979 65.0032 131.647 68.2949C131.647 68.2949 130.981 70.3029 130.463 70.5662C130.577 70.5129 130.695 70.4653 130.815 70.4238C130.746 70.5326 130.651 70.6262 130.537 70.6979C130.725 70.6114 130.92 70.5382 131.12 70.4788C130.716 72.6235 131.314 78.7582 131.314 78.7582C131.314 78.7582 130.833 79.816 131.462 80.4415C131.836 80.8132 132.039 81.3927 132.143 81.803C132.114 81.8441 132.083 81.8866 132.052 81.9307V81.9313C131.719 82.3968 131.273 83.0038 130.981 83.3382C130.463 83.9307 130.611 85.807 130.611 85.807C130.611 85.807 130.5 86.6958 130.13 87.025C129.76 87.3541 129.834 88.5721 129.834 88.5721L128.873 91.7651C128.873 91.7651 127.985 92.4893 127.985 92.8184C127.985 93.1476 127.282 94.0693 127.282 94.0693C127.282 94.0693 126.209 95.6494 127.282 95.4189C127.673 95.3157 128.04 95.1493 128.365 94.9278L128.365 94.9515C128.363 95.0094 128.362 95.0682 128.361 95.1279C128.33 96.8489 128.538 99.2703 129.945 99.2703C132.128 99.2703 137.751 101.607 137.751 101.607C138.898 102.397 140.451 102.134 140.451 102.134C140.451 102.134 137.714 104.603 137.788 105.623C137.862 106.644 136.234 108.323 136.234 108.323L131.203 117.177C131.231 117.794 131.353 118.405 131.564 118.992C131.54 119.011 131.515 119.029 131.492 119.048C129.558 120.641 129.391 123.794 129.391 123.794L128.947 125.407L135.679 128.073C135.679 128.073 144.409 128.238 145.926 127.876C147.443 127.513 147.11 125.999 145.112 125.703C143.115 125.407 142.634 124.617 141.968 124.255C141.519 124.01 139.924 122.432 138.934 121.431C138.919 121.416 138.905 121.402 138.89 121.387L139.119 120.239C139.563 120.041 140.229 118.066 140.229 118.066C140.229 118.066 140.229 117.276 140.673 117.046C141.117 116.815 142.042 114.445 142.042 114.445C142.042 114.445 144.039 111.45 143.928 111.055C143.817 110.66 145.371 108.652 145.371 108.652C145.371 108.652 147.998 106.348 147.887 105.936C147.776 105.525 149.995 103.418 149.995 103.418C150.797 102.866 151.466 102.172 151.959 101.378C152.159 101.349 152.374 101.318 152.6 101.284C155.505 100.855 160.332 100.079 160.871 99.8628C161.611 99.5665 161.463 100.883 161.167 102.002C160.871 103.122 160.649 108.487 160.982 109.178C161.315 109.87 161.167 110.989 161.167 110.989L160.723 117.013L161.019 118.297C161.019 118.297 160.02 119.021 160.427 119.449C160.834 119.877 160.464 121.72 160.464 121.72C160.499 121.708 160.54 121.697 160.587 121.686C160.551 121.758 160.517 121.832 160.487 121.91C159.914 123.384 160.242 125.802 160.242 125.802V127.711C160.242 127.711 170.489 127.876 172.745 127.876C175.002 127.876 178.109 126.888 178.294 126.098C178.479 125.308 175.705 124.65 174.669 124.617ZM145.525 90.3481L144.854 90.399C145.076 90.3699 145.3 90.3529 145.525 90.3481V90.3481ZM149.617 65.0817C149.711 64.7009 149.825 64.2914 149.951 63.8713L149.617 65.0817ZM150.883 91.2713C150.243 91.4997 149.53 91.5005 148.89 91.2733L148.885 91.2713C148.885 91.2713 148.922 88.9671 149.218 88.0125C149.514 87.0579 149.921 85.3132 149.921 85.3132C149.921 85.3132 150.254 82.9103 150.587 81.824C150.92 80.7377 152.215 74.6809 152.881 74.2859C153.546 73.8909 153.916 74.5821 153.916 74.5821C153.916 74.5821 154.016 74.5803 154.183 74.5637C154.214 74.6268 154.249 74.694 154.288 74.7652C155.078 76.2037 157.394 79.1577 157.394 79.1577C158.081 79.5398 158.662 80.0575 159.095 80.6719C159.724 81.6265 159.909 83.8649 159.909 83.8649C159.909 83.8649 161.315 88.8354 161.981 89.5267C162.314 89.8723 162.166 90.0784 161.935 90.1975C161.463 90.4304 161.062 90.7643 160.767 91.1699C160.673 91.3055 160.572 91.4544 160.47 91.6131C160.216 91.56 159.988 91.5048 159.798 91.4471C157.985 90.898 151.882 90.8763 150.883 91.2713V91.2713Z"
      fill="url(#paint0_linear)"
    />
    <path
      d="M159.999 125.821V127.714C159.999 127.714 170.026 127.877 172.234 127.877C174.442 127.877 177.483 126.898 177.664 126.115C177.845 125.331 175.13 124.679 174.116 124.646C173.103 124.613 173.067 124.254 171.764 123.634C171.028 123.284 169.911 122.268 169.078 121.45C168.436 120.818 167.963 120.305 167.963 120.305C167.963 120.305 162.569 120.207 161.013 120.99C160.655 121.171 160.407 121.525 160.239 121.962C159.678 123.424 159.999 125.821 159.999 125.821Z"
      fill="#434175"
    />
    <path
      opacity="0.1"
      d="M160.239 121.962C161.37 121.608 167.99 121.47 169.078 121.45C168.436 120.818 167.963 120.305 167.963 120.305C167.963 120.305 162.569 120.207 161.013 120.99C160.655 121.171 160.407 121.525 160.239 121.962Z"
      fill="black"
    />
    <path
      d="M131.15 91.7755C131.15 91.7755 131.359 91.8898 131.735 92.0941C131.803 92.1307 131.876 92.1711 131.954 92.2136C132.192 92.3435 132.478 92.4982 132.805 92.6758C137.354 95.1481 149.764 101.85 150.443 101.797C150.621 101.783 151.156 101.71 151.895 101.602C152.09 101.573 152.3 101.543 152.522 101.509C155.364 101.083 160.087 100.313 160.615 100.099C161.339 99.8054 161.194 101.111 160.904 102.221C160.615 103.331 160.397 108.651 160.723 109.337C161.049 110.022 160.904 111.132 160.904 111.132L160.47 117.106L160.759 118.379C160.759 118.379 159.782 119.097 160.18 119.521C160.578 119.946 160.216 121.773 160.216 121.773C161.375 121.382 169.23 121.251 169.23 121.251C169.23 121.251 168.904 118.64 169.193 118.02C169.483 117.399 169.266 113.711 169.266 113.711C169.266 113.711 169.447 110.904 169.121 110.251C168.795 109.598 169.23 105.42 169.23 105.42C169.23 105.42 169.519 102.939 169.592 97.8796C169.664 92.8201 166.406 92.6569 166.406 92.6569C166.406 92.6569 165.972 92.6262 165.312 92.5687C164.022 92.4571 161.872 92.2436 160.436 91.9622C160.141 91.9074 159.851 91.8379 159.565 91.754C157.791 91.2095 151.819 91.188 150.841 91.5797C150.216 91.8062 149.517 91.8069 148.891 91.5816L148.887 91.5797L148.127 90.4698L140.866 91.028L140.096 91.0874L132.949 91.6371L132.457 91.675L131.15 91.7755Z"
      fill="#565387"
    />
    <path
      opacity="0.1"
      d="M160.253 96.7827C162.362 97.7097 164.374 94.4234 165.313 92.5686C164.022 92.457 161.872 92.2435 160.436 91.9622C159.491 93.3919 158.231 95.8942 160.253 96.7827Z"
      fill="black"
    />
    <path
      d="M153.918 74.5732C153.962 74.7976 154.049 75.0136 154.174 75.2116C154.946 76.6381 157.212 79.5674 157.212 79.5674C157.886 79.9477 158.456 80.4611 158.877 81.0689C159.493 82.0155 159.674 84.2352 159.674 84.2352C159.674 84.2352 161.049 89.1641 161.701 89.8496C162.026 90.1924 161.882 90.3967 161.656 90.5149C161.193 90.7468 160.801 91.078 160.513 91.4791C159.564 92.8553 158.049 95.5848 160.18 96.5216C163.076 97.7947 165.791 91.1227 165.791 91.1227C165.791 91.1227 165.248 86.3896 165.103 85.5735C164.958 84.7575 164.09 81.3953 164.09 81.3953C164.09 81.3953 163.474 79.9591 163.112 78.9472C162.75 77.9353 161.664 76.7602 161.664 76.7602C161.664 76.7602 159.71 73.2349 159.167 72.7126C158.915 72.4704 158.562 72.1649 158.255 71.907C157.901 71.6086 157.61 71.3743 157.61 71.3743C157.61 71.3743 153.882 73.7898 153.918 74.5732Z"
      fill="#EE8E9E"
    />
    <path
      d="M129.376 125.429L135.964 128.073C135.964 128.073 144.507 128.237 145.991 127.878C147.475 127.518 147.149 126.017 145.195 125.723C143.24 125.429 142.769 124.646 142.118 124.287C141.678 124.045 140.117 122.479 139.149 121.487C138.683 121.009 138.353 120.664 138.353 120.664C138.353 120.664 137.086 117.628 133.575 118.313C132.934 118.438 132.344 118.719 131.867 119.124C129.975 120.703 129.811 123.83 129.811 123.83L129.376 125.429Z"
      fill="#434175"
    />
    <path
      opacity="0.1"
      d="M131.954 92.2135C132.192 92.3434 132.478 92.4982 132.805 92.6757C137.354 95.1481 149.764 101.85 150.443 101.797C150.621 101.783 151.156 101.71 151.895 101.602C152.09 101.573 152.3 101.543 152.522 101.509C152.53 101.496 152.538 101.484 152.546 101.471C152.911 100.897 153.189 100.282 153.375 99.6422C154.135 97.0308 150.371 95.0397 150.371 95.0397L149.574 94.4815C148.669 93.1073 142.154 91.8081 142.154 91.8081L141.314 91.2996L140.866 91.028L140.748 90.9568L139.729 90.3392L134.625 90.6656L133.109 91.5444L132.949 91.6371L132.386 91.9635L131.954 92.2135Z"
      fill="black"
    />
    <path
      opacity="0.1"
      d="M131.867 119.124C133.252 123.446 139.041 122.035 139.041 122.035L139.149 121.487C138.683 121.009 138.353 120.664 138.353 120.664C138.353 120.664 137.086 117.628 133.575 118.313C132.934 118.438 132.344 118.719 131.867 119.124V119.124Z"
      fill="black"
    />
    <path
      d="M130.354 99.5117C132.489 99.5117 137.991 101.829 137.991 101.829C139.113 102.613 140.634 102.352 140.634 102.352C140.634 102.352 137.955 104.8 138.027 105.812C138.1 106.823 136.507 108.488 136.507 108.488L131.584 117.269C131.946 123.504 139.041 121.773 139.041 121.773L139.331 120.305C139.765 120.109 140.417 118.15 140.417 118.15C140.417 118.15 140.417 117.367 140.851 117.138C141.285 116.91 142.19 114.56 142.19 114.56C142.19 114.56 144.145 111.589 144.036 111.197C143.928 110.806 145.448 108.815 145.448 108.815C145.448 108.815 148.018 106.53 147.909 106.122C147.801 105.714 149.973 103.625 149.973 103.625C150.759 103.075 151.413 102.387 151.895 101.602C152.259 101.028 152.538 100.413 152.724 99.7728C153.336 97.67 151.014 95.9687 150.086 95.387C149.862 95.246 149.719 95.1703 149.719 95.1703L148.923 94.6121C148.512 93.9867 146.939 93.3776 145.347 92.8991C144.199 92.5537 143.04 92.2763 142.3 92.1098C141.809 92.0001 141.502 91.9387 141.502 91.9387L140.663 91.4302L140.367 91.2513L140.097 91.0874L139.077 90.4698L136.806 90.6148L133.973 90.7963L132.457 91.675L131.735 92.0941L128.906 93.734C128.906 93.734 128.831 94.3621 128.807 95.2049C128.806 95.2702 128.804 95.3361 128.803 95.404C128.773 97.1105 128.977 99.5117 130.354 99.5117Z"
      fill="#565387"
    />
    <path
      d="M141.249 62.9526L142.009 65.4008C142.009 65.4008 143.348 69.6116 143.493 69.9054C143.638 70.1991 147.149 73.1696 147.294 73.2348C147.439 73.3001 149.351 74.2794 149.351 74.2794C149.351 74.2794 149.502 68.8935 149.357 67.3266C149.345 66.9824 149.376 66.6381 149.451 66.3004C149.682 65.0724 150.267 63.2718 150.751 61.8852C151.156 60.7232 151.493 59.8516 151.493 59.8516C151.493 59.8516 143.023 59.5252 143.312 60.276C143.422 60.56 143.386 61.0346 143.28 61.5105C143.106 62.2932 142.741 63.0786 142.516 63.0179C142.296 62.973 142.071 62.9505 141.845 62.9506C141.532 62.9422 141.249 62.9526 141.249 62.9526Z"
      fill="#EE8E9E"
    />
    <path
      opacity="0.1"
      d="M143.281 61.5105C144.315 62.2893 145.601 62.7465 146.947 62.814C148.293 62.8815 149.627 62.5558 150.751 61.8852C151.156 60.7232 151.493 59.8516 151.493 59.8516C151.493 59.8516 143.023 59.5252 143.312 60.276C143.422 60.56 143.386 61.0346 143.281 61.5105Z"
      fill="black"
    />
    <path
      d="M153.557 56.9804C153.557 57.5793 153.452 58.1744 153.244 58.7433C153.191 58.8901 153.131 59.0345 153.063 59.1759C152.575 60.2173 151.752 61.1028 150.7 61.7178C149.648 62.3327 148.416 62.6489 147.163 62.6253C145.909 62.6018 144.693 62.2396 143.67 61.5856C142.648 60.9316 141.866 60.016 141.427 58.9571C141.179 58.3579 141.046 57.7246 141.036 57.0849C141.033 57.0506 141.033 57.0147 141.033 56.9804C141.033 55.4827 141.692 54.0464 142.867 52.9873C144.041 51.9283 145.634 51.3334 147.295 51.3334C148.956 51.3334 150.548 51.9283 151.723 52.9873C152.897 54.0464 153.557 55.4827 153.557 56.9804H153.557Z"
      fill="#EE8E9E"
    />
    <path
      opacity="0.1"
      d="M141.249 62.9525L142.009 65.4007C142.009 65.4007 143.348 69.6115 143.493 69.9053C143.638 70.1991 147.149 73.1695 147.294 73.2348C147.439 73.3001 149.351 74.2793 149.351 74.2793C149.351 74.2793 149.502 68.8934 149.357 67.3266C149.345 66.9824 149.376 66.638 149.451 66.3003L148.959 68.11L148.995 71.7332L149.285 71.9291L148.633 72.8104V72.1576C148.633 72.1576 146.317 70.1338 145.955 69.2851C145.593 68.4364 144.29 66.8996 144.29 66.8996C144.29 66.8996 142.806 64.6499 142.769 64.2582C142.741 63.9527 142.118 63.2463 141.845 62.9506C141.532 62.9421 141.249 62.9525 141.249 62.9525Z"
      fill="black"
    />
    <path
      opacity="0.1"
      d="M153.918 74.5732C153.962 74.7976 154.049 75.0136 154.174 75.2117C154.965 75.1385 157.662 74.6848 158.255 71.907C157.901 71.6086 157.61 71.3743 157.61 71.3743C157.61 71.3743 153.882 73.7898 153.918 74.5732Z"
      fill="black"
    />
    <path
      opacity="0.1"
      d="M128.803 95.404C129.533 94.9379 130.228 94.302 130.643 94.1258C131.259 93.8646 132.2 93.0159 132.2 93.0159C132.2 93.0159 132.439 92.8697 132.805 92.6758C133.477 92.3207 134.578 91.8062 135.421 91.7429C136.177 91.6861 138.688 91.5412 140.663 91.4302C142.092 91.3492 143.24 91.2859 143.24 91.2859C143.24 91.2859 145.593 90.5351 146.606 91.0248C147.332 91.3527 148.097 91.6046 148.887 91.7755C148.887 91.7755 148.888 91.7044 148.891 91.5816L148.887 91.5797L148.127 90.4698L140.097 91.0874L139.077 90.4698L133.973 90.7963L132.457 91.675L131.15 91.7755C131.15 91.7755 131.359 91.8898 131.735 92.0941L128.906 93.7341C128.906 93.7341 128.819 94.4633 128.803 95.404Z"
      fill="black"
    />
    <path
      d="M127.747 95.6925C128.131 95.5898 128.49 95.4248 128.807 95.2055V95.2048C129.536 94.7393 130.229 94.1054 130.643 93.9298C131.258 93.6687 132.2 92.82 132.2 92.82C132.2 92.82 134.118 91.6449 135.421 91.547C135.777 91.5202 136.519 91.4738 137.412 91.4216C138.326 91.3668 139.395 91.3054 140.367 91.2512C140.928 91.2192 141.455 91.1892 141.901 91.1644C142.7 91.12 143.24 91.09 143.24 91.09C143.24 91.09 145.593 90.3392 146.606 90.8288C147.332 91.1568 148.097 91.4086 148.887 91.5796C148.887 91.5796 148.923 89.2947 149.212 88.348C149.502 87.4014 149.9 85.6714 149.9 85.6714C149.9 85.6714 150.226 83.2885 150.552 82.2114C150.877 81.1342 152.144 75.128 152.796 74.7363C153.447 74.3446 153.809 75.0301 153.809 75.0301C153.809 75.0301 158.153 74.9648 158.226 70.6561C158.226 70.6561 156.199 68.8281 156.054 68.3712C155.909 67.9142 153.99 66.2168 153.99 66.2168C153.99 66.2168 152.905 64.3888 151.674 64.3562C151.092 64.326 150.509 64.3422 149.931 64.4045L148.887 68.2406L148.923 71.8639L149.212 72.0597L148.561 72.941V72.2882C148.561 72.2882 146.244 70.2644 145.882 69.4157C145.52 68.567 144.217 67.0302 144.217 67.0302C144.217 67.0302 142.733 64.7805 142.697 64.3888C142.661 63.9971 141.647 62.9474 141.647 62.9474C141.443 62.9258 141.236 62.9258 141.032 62.9474C140.94 62.9531 140.849 62.9415 140.762 62.9134C140.178 62.745 139.556 62.7131 138.954 62.8207C137.702 63.0551 135.798 63.484 135.276 63.9971C134.48 64.7805 133.322 65.5313 132.019 68.7955L139.041 71.0804L138.44 72.1106L132.851 81.6891C132.851 81.6891 132.666 81.9613 132.415 82.3171V82.3178C132.089 82.7793 131.653 83.3812 131.367 83.7129C130.86 84.3004 131.005 86.161 131.005 86.161C131.005 86.161 130.896 87.0424 130.535 87.3688C130.173 87.6952 130.245 88.9029 130.245 88.9029L129.304 92.0692C129.304 92.0692 128.435 92.7874 128.435 93.1138C128.435 93.4402 127.747 94.3542 127.747 94.3542C127.747 94.3542 126.698 95.921 127.747 95.6925Z"
      fill="#434175"
    />
    <path
      opacity="0.1"
      d="M164.814 98.0427C164.814 98.0427 162.533 98.7282 161.918 99.7075C161.302 100.687 164.814 98.0427 164.814 98.0427Z"
      fill="black"
    />
    <path
      opacity="0.1"
      d="M163.655 95.8884C163.583 95.9864 160.532 98.7471 160.723 99.4138C160.915 100.08 163.655 95.8884 163.655 95.8884Z"
      fill="black"
    />
    <path
      opacity="0.1"
      d="M146.896 97.8469C146.896 97.8469 143.493 99.2939 143.204 99.9251C142.914 100.556 146.896 97.8469 146.896 97.8469Z"
      fill="black"
    />
    <path
      opacity="0.1"
      d="M146.679 99.7075C146.679 99.7075 143.608 100.883 143.189 101.176C142.769 101.47 146.679 99.7075 146.679 99.7075Z"
      fill="black"
    />
    <path
      opacity="0.1"
      d="M145.267 102.221C145.267 102.221 143.907 103.135 143.157 102.417C142.407 101.699 145.267 102.221 145.267 102.221Z"
      fill="black"
    />
    <path
      opacity="0.1"
      d="M150.371 78.3922C150.299 78.4901 145.774 85.8346 144.579 86.3895C143.385 86.9444 150.371 78.3922 150.371 78.3922Z"
      fill="black"
    />
    <path
      opacity="0.1"
      d="M150.154 81.1669C150.154 81.3301 145.738 89.8496 145.014 89.9476C144.29 90.0455 150.154 81.1669 150.154 81.1669Z"
      fill="black"
    />
    <path
      opacity="0.1"
      d="M133.358 86.6506C133.358 86.6506 131.225 90.7578 130.39 90.992C129.555 91.2262 133.358 86.6506 133.358 86.6506Z"
      fill="black"
    />
    <path
      opacity="0.1"
      d="M132.996 84.8228C132.996 84.8228 132.261 86.259 131.814 86.259C131.367 86.259 132.996 84.8228 132.996 84.8228Z"
      fill="black"
    />
    <path
      opacity="0.1"
      d="M153.557 56.9804C153.557 57.5793 153.452 58.1744 153.244 58.7433C153.191 58.8901 153.131 59.0345 153.063 59.1758C152.741 59.1319 152.438 59.0119 152.185 58.8282C151.916 58.6639 151.692 58.4475 151.528 58.1948C151.404 57.9256 151.297 57.6504 151.207 57.3705C151.063 57.0546 150.828 56.7793 150.526 56.5729C150.224 56.3666 149.866 56.2368 149.49 56.1969C149.698 56.5168 149.366 56.9559 148.959 57.013C148.552 57.0685 148.156 56.8498 147.875 56.5772C147.594 56.3046 147.392 55.9732 147.113 55.7006C146.832 55.428 146.436 55.2093 146.029 55.2648C145.668 55.3138 145.39 55.5619 145.087 55.7463C144.787 55.9308 144.365 56.0549 144.074 55.8573C143.911 55.748 143.831 55.5619 143.675 55.4427C143.275 55.1408 142.653 55.4525 142.358 55.8427C141.903 56.4466 141.626 56.8123 141.036 57.0848C141.033 57.0506 141.033 57.0147 141.033 56.9804C141.033 55.4827 141.692 54.0464 142.867 52.9873C144.041 51.9283 145.634 51.3334 147.295 51.3334C148.956 51.3334 150.548 51.9283 151.723 52.9873C152.897 54.0464 153.557 55.4827 153.557 56.9804Z"
      fill="black"
    />
    <path
      d="M142.358 55.6794C142.653 55.289 143.275 54.9768 143.676 55.2803C143.832 55.3981 143.911 55.5844 144.074 55.6946C144.365 55.8923 144.787 55.7683 145.088 55.5832C145.389 55.3981 145.668 55.1511 146.028 55.1017C146.436 55.0458 146.833 55.2647 147.113 55.5375C147.392 55.8104 147.595 56.1413 147.875 56.4141C148.155 56.6869 148.552 56.9056 148.959 56.8494C149.366 56.7932 149.699 56.3537 149.489 56.0336C149.865 56.0736 150.223 56.2035 150.525 56.4098C150.827 56.6161 151.062 56.8914 151.207 57.2072C151.297 57.487 151.404 57.7622 151.527 58.0314C151.691 58.2841 151.916 58.5003 152.185 58.6642C152.517 58.8837 152.92 59.0689 153.326 59.0052C153.731 58.9415 154.075 58.5223 153.886 58.1921C154.016 58.3697 154.294 58.1223 154.336 57.9131C154.428 57.4543 154.399 56.9824 154.253 56.5354C154.053 55.9287 153.633 55.327 153.795 54.711C153.923 54.2233 154.385 53.8731 154.665 53.4405C155.163 52.6736 155.031 51.6405 154.426 50.9392C154.111 50.5955 153.712 50.3232 153.259 50.1443C152.807 49.9654 152.314 49.885 151.82 49.9094C151.548 49.9374 151.274 49.942 151.001 49.9231C150.547 49.8623 150.162 49.5985 149.8 49.3435L146.768 47.2093C146.431 46.9411 146.043 46.7302 145.622 46.5866C145.194 46.4668 144.68 46.5081 144.363 46.7942C143.795 47.3061 144.156 48.1872 143.928 48.8814C143.731 49.4826 143.095 49.8901 142.438 50.0932C141.78 50.2963 141.076 50.3408 140.4 50.4879C140.198 50.5178 140.01 50.597 139.854 50.7168C139.679 50.9119 139.594 51.1606 139.618 51.4108C139.613 52.0249 139.775 52.6308 140.088 53.176C140.439 53.7849 140.996 54.4108 140.799 55.0737C140.695 55.4246 140.395 55.6949 140.131 55.969C139.558 56.5633 139.364 57.4414 140.442 57.1346C141.481 56.8392 141.772 56.4562 142.358 55.6794Z"
      fill="#434175"
    />
    <g opacity="0.1">
      <path
        opacity="0.1"
        d="M154.337 57.2695C154.295 57.4788 154.016 57.7261 153.887 57.5485C154.075 57.8787 153.732 58.298 153.326 58.3617C152.92 58.4253 152.518 58.2402 152.186 58.0206C151.917 57.8568 151.692 57.6405 151.528 57.3878C151.404 57.1186 151.297 56.8435 151.207 56.5637C151.063 56.2479 150.827 55.9726 150.526 55.7663C150.224 55.5599 149.866 55.4301 149.49 55.3901C149.699 55.7101 149.367 56.1496 148.96 56.2059C148.553 56.2621 148.155 56.0433 147.876 55.7706C147.596 55.4978 147.393 55.1668 147.113 54.894C146.833 54.6212 146.437 54.4022 146.029 54.4581C145.669 54.5075 145.39 54.7545 145.089 54.9396C144.788 55.1248 144.365 55.2488 144.074 55.0511C143.912 54.9408 143.833 54.7545 143.677 54.6367C143.276 54.3333 142.654 54.6454 142.359 55.0358C141.773 55.8127 141.482 56.1956 140.443 56.4911C140.102 56.5881 139.889 56.5662 139.774 56.4726C139.546 56.9446 139.65 57.3603 140.443 57.1347C141.482 56.8392 141.773 56.4562 142.359 55.6794C142.654 55.289 143.276 54.9768 143.677 55.2803C143.833 55.3981 143.912 55.5844 144.074 55.6946C144.365 55.8923 144.788 55.7683 145.089 55.5832C145.39 55.3981 145.669 55.1511 146.029 55.1017C146.437 55.0458 146.833 55.2647 147.113 55.5375C147.393 55.8104 147.596 56.1414 147.876 56.4141C148.155 56.6869 148.553 56.9056 148.96 56.8494C149.367 56.7932 149.699 56.3537 149.49 56.0336C149.866 56.0736 150.224 56.2035 150.526 56.4098C150.827 56.6161 151.063 56.8914 151.207 57.2072C151.297 57.487 151.404 57.7622 151.528 58.0314C151.692 58.2841 151.917 58.5003 152.186 58.6642C152.518 58.8837 152.92 59.0689 153.326 59.0052C153.732 58.9415 154.075 58.5223 153.887 58.1921C154.016 58.3697 154.295 58.1223 154.337 57.9131C154.393 57.6314 154.404 57.3438 154.37 57.0592C154.361 57.1296 154.351 57.1999 154.337 57.2695Z"
        fill="black"
      />
      <path
        opacity="0.1"
        d="M140.79 54.455C140.793 54.4466 140.797 54.4387 140.8 54.4302C140.997 53.7672 140.44 53.1414 140.089 52.5325C139.843 52.103 139.69 51.6351 139.639 51.1538C139.625 51.2389 139.618 51.3248 139.618 51.4108C139.614 52.025 139.775 52.6308 140.089 53.176C140.329 53.5922 140.665 54.0164 140.79 54.455Z"
        fill="black"
      />
      <path
        opacity="0.1"
        d="M154.666 52.7969C154.386 53.2295 153.923 53.5797 153.795 54.0674C153.746 54.2737 153.748 54.4874 153.802 54.6929C153.937 54.2148 154.389 53.8676 154.666 53.4405C154.927 53.0222 155.026 52.5369 154.945 52.0624C154.905 52.3212 154.811 52.5706 154.666 52.7969V52.7969Z"
        fill="black"
      />
    </g>
    <path
      opacity="0.1"
      d="M132.415 82.3171V82.3177C132.463 82.4979 132.5 82.6803 132.525 82.8642C132.525 82.8642 135.385 88.9029 135.747 89.262C135.858 89.3723 136.278 89.9155 136.806 90.6147C136.997 90.8673 137.202 91.1409 137.412 91.4216C138.507 92.8866 139.729 94.55 139.729 94.55L142.407 96.6717C142.407 96.6717 148.234 97.0922 150.086 95.387C149.862 95.2459 149.719 95.1702 149.719 95.1702L148.923 94.612C148.512 93.9866 146.939 93.3775 145.347 92.899C143.88 92.9088 142.681 93.0158 142.681 93.0158L142.299 92.1097L141.901 91.1644L139.876 86.3569C139.876 86.3569 138.57 80.2855 138.136 79.9917C137.702 79.6979 137.81 78.7839 137.81 78.7839C137.81 78.7839 138.606 76.2052 138.317 75.8461C138.027 75.4871 138.787 72.8431 138.787 72.8431C138.712 72.585 138.595 72.3382 138.44 72.1106L132.851 81.6891C132.851 81.6891 132.666 81.9613 132.415 82.3171Z"
      fill="black"
    />
    <path
      d="M138.86 72.6473C138.86 72.6473 138.1 75.2913 138.389 75.6504C138.679 76.0094 137.883 78.5881 137.883 78.5881C137.883 78.5881 137.774 79.5021 138.208 79.7959C138.643 80.0897 139.949 86.1611 139.949 86.1611L142.753 92.82C142.753 92.82 151.529 92.0366 150.624 94.5174C149.719 96.9982 142.48 96.4759 142.48 96.4759L139.801 94.3542C139.801 94.3542 136.181 89.4253 135.819 89.0662C135.457 88.7072 132.598 82.6684 132.598 82.6684C132.598 82.6684 132.453 81.4606 131.838 80.8404C131.222 80.2202 131.693 79.1712 131.693 79.1712C131.693 79.1712 130.933 71.2763 131.729 70.3297C132.525 69.3831 138.027 69.8075 138.86 72.6473Z"
      fill="#EE8E9E"
    />
    <path
      opacity="0.1"
      d="M134.372 67.6857L132.091 68.9261C132.091 68.9261 131.44 70.9172 130.933 71.1784C130.933 71.1784 135.494 68.8934 138.933 74.1488C138.933 74.1488 138.824 73.4633 139.294 73.1369C139.765 72.8105 139.656 71.4069 139.656 71.4069C139.782 71.1851 139.891 70.9561 139.982 70.7214C140.308 70.0033 138.607 65.8904 134.372 67.6857Z"
      fill="black"
    />
    <path
      d="M134.299 67.5552L132.019 68.7956C132.019 68.7956 131.367 70.7868 130.86 71.0479C130.86 71.0479 135.421 68.763 138.86 74.0183C138.86 74.0183 138.751 73.3328 139.222 73.0064C139.693 72.68 139.584 71.2764 139.584 71.2764C139.709 71.0546 139.818 70.8256 139.91 70.5909C140.236 69.8728 138.534 65.7599 134.299 67.5552Z"
      fill="#434175"
    />
    <path
      d="M113.974 124.72C117.728 124.72 120.772 121.807 120.772 118.213C120.772 114.619 117.728 111.705 113.974 111.705C110.219 111.705 107.175 114.619 107.175 118.213C107.175 121.807 110.219 124.72 113.974 124.72Z"
      fill="#FBD56F"
    />
    <path
      opacity="0.1"
      d="M113.974 124.72C117.728 124.72 120.772 121.807 120.772 118.213C120.772 114.619 117.728 111.705 113.974 111.705C110.219 111.705 107.175 114.619 107.175 118.213C107.175 121.807 110.219 124.72 113.974 124.72Z"
      fill="black"
    />
    <path
      d="M115.147 124.72C118.901 124.72 121.945 121.871 121.945 118.357C121.945 114.844 118.901 111.995 115.147 111.995C111.392 111.995 108.348 114.844 108.348 118.357C108.348 121.871 111.392 124.72 115.147 124.72Z"
      fill="#FBD56F"
    />
    <path
      d="M16.6371 121.789C21.2743 121.789 25.0334 121.216 25.0334 120.509C25.0334 119.802 21.2743 119.229 16.6371 119.229C11.9999 119.229 8.24072 119.802 8.24072 120.509C8.24072 121.216 11.9999 121.789 16.6371 121.789Z"
      fill="#E09BED"
    />
    <path
      d="M20.1087 118.415C20.4683 118.113 20.8056 117.758 20.9092 117.325C21.0129 116.892 20.8084 116.374 20.3499 116.216C19.8361 116.038 19.2872 116.36 18.871 116.684C18.4547 117.008 17.9777 117.378 17.433 117.31C17.7132 117.08 17.9228 116.79 18.0415 116.466C18.1601 116.142 18.1837 115.796 18.11 115.462C18.0861 115.324 18.021 115.194 17.9217 115.087C17.6365 114.812 17.1196 114.93 16.7781 115.146C15.6922 115.835 15.3892 117.165 15.3833 118.363C15.2737 117.931 15.366 117.481 15.3633 117.038C15.3606 116.595 15.226 116.104 14.8116 115.866C14.5534 115.74 14.2631 115.679 13.9701 115.687C13.4819 115.671 12.9383 115.715 12.6049 116.037C12.1907 116.437 12.2981 117.109 12.6585 117.549C13.0188 117.989 13.5669 118.265 14.0715 118.569C14.4762 118.787 14.8213 119.084 15.0812 119.438C15.1118 119.487 15.1368 119.539 15.1561 119.593H18.2163C18.9032 119.279 19.5398 118.883 20.1087 118.415V118.415Z"
      fill="#E09BED"
    />
    <path
      d="M92.5676 112.162C92.9416 112.624 93.2476 113.128 93.4776 113.661C93.5384 113.798 93.5979 113.943 93.6543 114.095C94.5588 116.533 93.1255 119.456 92.7157 119.141C92.306 118.826 91.029 118.241 90.7821 119.063C90.5352 119.885 89.6231 120.725 89.6231 120.725C87.9614 122.233 86.4573 120.604 85.47 118.922C85.1474 118.367 84.8606 117.795 84.611 117.21C84.3918 116.693 84.2659 116.336 84.2659 116.336L91.1872 111.018C91.1872 111.018 91.8563 111.295 92.5676 112.162Z"
      fill="#E09BED"
    />
    <path
      d="M81.6591 115.563C82.0332 116.024 82.3391 116.528 82.5692 117.061C82.63 117.199 82.6895 117.344 82.7458 117.496C83.6504 119.934 82.2171 122.857 81.8073 122.542C81.3975 122.226 80.1206 121.641 79.8737 122.463C79.6268 123.286 78.7147 124.126 78.7147 124.126C77.053 125.633 75.5488 124.005 74.5615 122.322C74.2389 121.767 73.9521 121.196 73.7025 120.611C73.4833 120.094 73.3574 119.737 73.3574 119.737L80.2787 114.419C80.2787 114.419 80.9478 114.696 81.6591 115.563Z"
      fill="#E09BED"
    />
    <path
      d="M59.756 120.26C59.7172 120.831 59.5962 121.395 59.3961 121.938C59.3454 122.079 59.2888 122.225 59.2246 122.374C58.1957 124.771 55.0233 126.197 54.931 125.719C54.8387 125.24 54.2697 124.055 53.4977 124.546C52.7258 125.037 51.4288 125.159 51.4288 125.159C49.0829 125.363 49.0773 123.243 49.508 121.38C49.6525 120.767 49.8361 120.162 50.0579 119.568C50.2548 119.044 50.4106 118.696 50.4106 118.696L59.5027 118.585C59.5027 118.585 59.8218 119.184 59.756 120.26Z"
      fill="#E09BED"
    />
    <path
      d="M48.0085 117.588C47.9696 118.159 47.8486 118.723 47.6486 119.266C47.5979 119.407 47.5412 119.553 47.4771 119.702C46.4482 122.1 43.2758 123.525 43.1834 123.047C43.0911 122.568 42.5221 121.383 41.7502 121.874C40.9782 122.365 39.6813 122.487 39.6813 122.487C37.3353 122.691 37.3297 120.571 37.7604 118.708C37.9049 118.095 38.0885 117.49 38.3103 116.896C38.5073 116.372 38.6631 116.024 38.6631 116.024L47.7551 115.914C47.7551 115.914 48.0742 116.512 48.0085 117.588Z"
      fill="#E09BED"
    />
    <path
      opacity="0.2"
      d="M92.5676 112.162C92.9416 112.624 93.2476 113.128 93.4776 113.661C93.5384 113.798 93.5979 113.943 93.6543 114.095C94.5588 116.533 93.1255 119.456 92.7157 119.141C92.306 118.826 91.029 118.241 90.7821 119.063C90.5352 119.885 89.6231 120.725 89.6231 120.725C87.9614 122.233 86.4573 120.604 85.47 118.922C85.1474 118.367 84.8606 117.795 84.611 117.21C84.3918 116.693 84.2659 116.336 84.2659 116.336L91.1872 111.018C91.1872 111.018 91.8563 111.295 92.5676 112.162Z"
      fill="black"
    />
    <path
      opacity="0.2"
      d="M81.6591 115.563C82.0332 116.024 82.3391 116.528 82.5692 117.061C82.63 117.199 82.6895 117.344 82.7458 117.496C83.6504 119.934 82.2171 122.857 81.8073 122.542C81.3975 122.226 80.1206 121.641 79.8737 122.463C79.6268 123.286 78.7147 124.126 78.7147 124.126C77.053 125.633 75.5488 124.005 74.5615 122.322C74.2389 121.767 73.9521 121.196 73.7025 120.611C73.4833 120.094 73.3574 119.737 73.3574 119.737L80.2787 114.419C80.2787 114.419 80.9478 114.696 81.6591 115.563Z"
      fill="black"
    />
    <path
      opacity="0.2"
      d="M59.756 120.26C59.7172 120.831 59.5962 121.395 59.3961 121.938C59.3454 122.079 59.2888 122.225 59.2246 122.374C58.1957 124.771 55.0233 126.197 54.931 125.719C54.8387 125.24 54.2697 124.055 53.4977 124.546C52.7258 125.037 51.4288 125.159 51.4288 125.159C49.0829 125.363 49.0773 123.243 49.508 121.38C49.6525 120.767 49.8361 120.162 50.0579 119.568C50.2548 119.044 50.4106 118.696 50.4106 118.696L59.5027 118.585C59.5027 118.585 59.8218 119.184 59.756 120.26Z"
      fill="black"
    />
    <path
      opacity="0.2"
      d="M48.0085 117.588C47.9696 118.159 47.8486 118.723 47.6486 119.266C47.5979 119.407 47.5412 119.553 47.4771 119.702C46.4482 122.1 43.2758 123.525 43.1834 123.047C43.0911 122.568 42.5221 121.383 41.7502 121.874C40.9782 122.365 39.6813 122.487 39.6813 122.487C37.3353 122.691 37.3297 120.571 37.7604 118.708C37.9049 118.095 38.0885 117.49 38.3103 116.896C38.5073 116.372 38.6631 116.024 38.6631 116.024L47.7551 115.914C47.7551 115.914 48.0742 116.512 48.0085 117.588Z"
      fill="black"
    />
    <path
      d="M111.03 81.6558C111.03 103.555 102.815 121.307 64.9043 121.307C39.4299 121.307 19.7215 115.6 18.7788 81.6558C18.1708 59.7637 39.4299 42.0042 64.9043 42.0042C90.3786 42.0042 111.03 59.7568 111.03 81.6558Z"
      fill="#E09BED"
    />
    <path
      opacity="0.2"
      d="M56.2517 42.6963H56.2574C56.2561 42.697 56.2546 42.6974 56.2531 42.6976L56.2517 42.6963Z"
      fill="black"
    />
    <path
      opacity="0.2"
      d="M56.3418 42.683C56.4589 42.666 56.6906 42.6368 57.0272 42.6138L56.2771 42.6939C56.2879 42.6915 56.3013 42.6891 56.3175 42.6866C56.3256 42.6854 56.3323 42.6842 56.3418 42.683Z"
      fill="black"
    />
    <path
      opacity="0.2"
      d="M90.4248 58.8848L87.058 59.9778C85.3417 57.9023 83.495 55.917 81.527 54.0319C79.379 51.9659 77.0354 50.0727 74.5227 48.3738C65.9023 42.6125 59.2346 42.4655 57.0327 42.6137L62.0937 42.0769C66.877 42.8191 71.4769 44.3186 75.6809 46.506C78.6219 48.0349 81.3612 49.8597 83.8461 51.9455C88.2526 55.6338 90.4248 58.8848 90.4248 58.8848Z"
      fill="black"
    />
    <path
      opacity="0.2"
      d="M59.9888 60.9494C59.9888 60.9494 55.5446 47.5905 59.3154 43.9472C59.3154 43.9472 65.241 42.1255 69.6852 52.4483L59.9888 60.9494Z"
      fill="black"
    />
    <path
      d="M82.4924 48.4722C82.4924 48.4722 94.278 39.4407 99.4918 41.0934C99.4918 41.0934 103.72 45.2568 95.0182 53.07L82.4924 48.4722Z"
      fill="#E09BED"
    />
    <path
      opacity="0.2"
      d="M82.4924 48.4722C82.4924 48.4722 94.278 39.4407 99.4918 41.0934C99.4918 41.0934 103.72 45.2568 95.0182 53.07L82.4924 48.4722Z"
      fill="black"
    />
    <path
      d="M119.245 91.7356C119.245 103.507 109.878 112.806 101.064 112.806C92.2503 112.806 87.3274 103.507 87.3274 91.7356C87.3274 79.9644 94.4871 70.882 103.286 70.4221C117.225 69.6934 119.245 79.9644 119.245 91.7356Z"
      fill="#E09BED"
    />
    <path
      opacity="0.2"
      d="M119.245 91.7356C119.245 103.507 109.878 112.806 101.064 112.806C92.2503 112.806 87.3274 103.507 87.3274 91.7356C87.3274 79.9644 94.4871 70.882 103.286 70.4221C117.225 69.6934 119.245 79.9644 119.245 91.7356Z"
      fill="black"
    />
    <path
      d="M100.525 96.897C102.162 96.897 103.488 95.3745 103.488 93.4965C103.488 91.6185 102.162 90.0961 100.525 90.0961C98.889 90.0961 97.5625 91.6185 97.5625 93.4965C97.5625 95.3745 98.889 96.897 100.525 96.897Z"
      fill="#E09BED"
    />
    <path
      d="M111.03 93.9824C112.666 93.9824 113.992 92.46 113.992 90.582C113.992 88.7039 112.666 87.1815 111.03 87.1815C109.393 87.1815 108.067 88.7039 108.067 90.582C108.067 92.46 109.393 93.9824 111.03 93.9824Z"
      fill="#E09BED"
    />
    <path
      d="M84.4211 49.7522C84.4232 50.5139 84.2261 51.2653 83.8461 51.9455C83.3444 52.8493 82.5305 53.5816 81.527 54.0319C79.379 51.9659 77.0354 50.0727 74.5227 48.3738C74.7466 47.68 75.1426 47.0413 75.6809 46.506C76.145 46.0395 76.7125 45.666 77.3467 45.4097C77.981 45.1534 78.6678 45.0201 79.3628 45.0183C82.1559 45.0183 84.4211 47.1375 84.4211 49.7522Z"
      fill="#FAD46F"
    />
  </g>
  <defs>
    <linearGradient
      id="paint0_linear"
      x1="152.554"
      y1="128.11"
      x2="152.554"
      y2="45.835"
      gradientUnits="userSpaceOnUse"
    >
      <stop stop-color="#808080" stop-opacity="0.25" />
      <stop offset="0.53514" stop-color="#808080" stop-opacity="0.12" />
      <stop offset="1" stop-color="#808080" stop-opacity="0.1" />
    </linearGradient>
    <clipPath id="clip0">
      <rect
        x="0.320068"
        y="0.455444"
        width="202.371"
        height="131.046"
        fill="white"
      />
    </clipPath>
  </defs>
</svg>
